<svg width="1371" height="511" viewBox="0 0 1371 511" fill="none" xmlns="http://www.w3.org/2000/svg">
<path d="M21.6211 93.1699V102.135C21.3398 102.533 20.8301 102.984 20.0918 103.488C19.3652 103.992 18.3984 104.432 17.1914 104.807C15.9844 105.17 14.5254 105.352 12.8145 105.352C11.3379 105.352 9.98438 105.082 8.75391 104.543C7.53516 104.004 6.48047 103.23 5.58984 102.223C4.69922 101.203 4.00781 99.9961 3.51562 98.6016C3.03516 97.1953 2.79492 95.6367 2.79492 93.9258V90.1641C2.79492 88.4883 3.02344 86.9766 3.48047 85.6289C3.94922 84.2695 4.61133 83.0977 5.4668 82.1133C6.32227 81.1289 7.3418 80.373 8.52539 79.8457C9.7207 79.3184 11.0449 79.0547 12.498 79.0547C14.373 79.0547 15.9492 79.3828 17.2266 80.0391C18.5156 80.6836 19.5234 81.5625 20.25 82.6758C20.9766 83.7891 21.4219 85.043 21.5859 86.4375H20.1621C19.9863 85.3594 19.6172 84.3633 19.0547 83.4492C18.5039 82.5234 17.6953 81.7793 16.6289 81.2168C15.5625 80.6426 14.1855 80.3555 12.498 80.3555C11.2207 80.3555 10.0723 80.5957 9.05273 81.0762C8.0332 81.5449 7.16016 82.2129 6.43359 83.0801C5.71875 83.9473 5.16797 84.9785 4.78125 86.1738C4.40625 87.3691 4.21875 88.6875 4.21875 90.1289V93.9258C4.21875 95.4258 4.41797 96.7969 4.81641 98.0391C5.22656 99.2695 5.80664 100.336 6.55664 101.238C7.31836 102.141 8.22656 102.838 9.28125 103.33C10.3477 103.811 11.5254 104.051 12.8145 104.051C14.1738 104.051 15.3574 103.916 16.3652 103.646C17.3848 103.377 18.2109 103.055 18.8438 102.68C19.4883 102.293 19.9395 101.936 20.1973 101.607V94.4883H12.7441V93.1699H21.6211ZM43.8047 103.699V105H28.8809V103.699H43.8047ZM29.5137 79.4062V105H28.0898V79.4062H29.5137ZM42.0117 91.166V92.4844H28.8809V91.166H42.0117ZM43.7695 79.4062V80.707H28.8809V79.4062H43.7695ZM56.9883 79.4062V105H55.582V79.4062H56.9883ZM66.0938 79.4062V80.707H46.4766V79.4062H66.0938ZM80.4727 79.4062V105H79.0488V79.4062H80.4727ZM106.576 79.4062V105H105.152L89.332 81.8496V105H87.8906V79.4062H89.332L105.152 102.521V79.4062H106.576ZM128.408 98.7949C128.408 98.0332 128.279 97.3535 128.021 96.7559C127.764 96.1465 127.336 95.6074 126.738 95.1387C126.152 94.6582 125.379 94.2129 124.418 93.8027C123.457 93.3926 122.273 92.9941 120.867 92.6074C119.578 92.2559 118.412 91.875 117.369 91.4648C116.338 91.043 115.453 90.5625 114.715 90.0234C113.988 89.4844 113.432 88.8457 113.045 88.1074C112.658 87.3574 112.465 86.4727 112.465 85.4531C112.465 84.4688 112.676 83.584 113.098 82.7988C113.52 82.0137 114.111 81.3457 114.873 80.7949C115.646 80.2324 116.549 79.8047 117.58 79.5117C118.623 79.207 119.76 79.0547 120.99 79.0547C122.713 79.0547 124.219 79.3828 125.508 80.0391C126.797 80.6836 127.805 81.5801 128.531 82.7285C129.258 83.8652 129.621 85.1719 129.621 86.6484H128.197C128.197 85.4414 127.898 84.3633 127.301 83.4141C126.715 82.4648 125.883 81.7207 124.805 81.1816C123.738 80.6309 122.467 80.3555 120.99 80.3555C119.467 80.3555 118.172 80.5898 117.105 81.0586C116.051 81.5273 115.248 82.1484 114.697 82.9219C114.158 83.6836 113.889 84.5156 113.889 85.418C113.889 86.0625 114.006 86.666 114.24 87.2285C114.486 87.791 114.885 88.3066 115.436 88.7754C115.998 89.2441 116.754 89.6895 117.703 90.1113C118.664 90.5215 119.859 90.9199 121.289 91.3066C122.602 91.6465 123.779 92.0332 124.822 92.4668C125.877 92.8887 126.779 93.3867 127.529 93.9609C128.279 94.5352 128.854 95.2148 129.252 96C129.65 96.7852 129.85 97.7051 129.85 98.7598C129.85 99.8027 129.627 100.734 129.182 101.555C128.736 102.363 128.115 103.055 127.318 103.629C126.533 104.191 125.607 104.619 124.541 104.912C123.486 105.205 122.35 105.352 121.131 105.352C120.018 105.352 118.898 105.217 117.773 104.947C116.66 104.678 115.641 104.244 114.715 103.646C113.789 103.049 113.045 102.264 112.482 101.291C111.92 100.318 111.639 99.1348 111.639 97.7402H113.062C113.062 98.9355 113.309 99.9434 113.801 100.764C114.293 101.572 114.938 102.217 115.734 102.697C116.531 103.178 117.398 103.523 118.336 103.734C119.285 103.945 120.217 104.051 121.131 104.051C122.561 104.051 123.82 103.834 124.91 103.4C126.012 102.955 126.867 102.34 127.477 101.555C128.098 100.758 128.408 99.8379 128.408 98.7949ZM142.998 94.3477H135.404V93.0469H142.998C144.639 93.0469 145.975 92.7773 147.006 92.2383C148.037 91.6875 148.787 90.9551 149.256 90.041C149.736 89.1152 149.977 88.0957 149.977 86.9824C149.977 85.834 149.736 84.7852 149.256 83.8359C148.787 82.8867 148.037 82.1309 147.006 81.5684C145.975 80.9941 144.639 80.707 142.998 80.707H136.143V105H134.719V79.4062H142.998C144.838 79.4062 146.379 79.7227 147.621 80.3555C148.875 80.9883 149.818 81.873 150.451 83.0098C151.084 84.1348 151.4 85.4473 151.4 86.9473C151.4 88.4707 151.084 89.7891 150.451 90.9023C149.818 92.0039 148.881 92.8535 147.639 93.4512C146.396 94.0488 144.85 94.3477 142.998 94.3477ZM158.59 79.4062V105H157.166V79.4062H158.59ZM165.938 79.4062H174.146C175.834 79.4062 177.316 79.6934 178.594 80.2676C179.871 80.8418 180.867 81.6797 181.582 82.7812C182.309 83.8828 182.672 85.2363 182.672 86.8418C182.672 88.0723 182.408 89.1855 181.881 90.1816C181.354 91.1777 180.639 92.0039 179.736 92.6602C178.834 93.3047 177.814 93.7266 176.678 93.9258L176.062 94.1543H166.623L166.588 92.8535H174.867C176.285 92.8535 177.463 92.5664 178.4 91.9922C179.35 91.418 180.059 90.6738 180.527 89.7598C181.008 88.834 181.248 87.8613 181.248 86.8418C181.248 85.5645 180.961 84.4746 180.387 83.5723C179.824 82.6582 179.01 81.9551 177.943 81.4629C176.889 80.959 175.623 80.707 174.146 80.707H167.361V105H165.938V79.4062ZM182.232 105L175.377 93.6445L176.959 93.627L183.744 104.754V105H182.232ZM205.031 103.699V105H190.107V103.699H205.031ZM190.74 79.4062V105H189.316V79.4062H190.74ZM203.238 91.166V92.4844H190.107V91.166H203.238ZM204.996 79.4062V80.707H190.107V79.4062H204.996ZM216.861 105H210.797L210.832 103.699H216.861C218.701 103.699 220.318 103.271 221.713 102.416C223.119 101.561 224.221 100.377 225.018 98.8652C225.814 97.3418 226.213 95.5898 226.213 93.6094V90.7441C226.213 89.2676 225.984 87.9141 225.527 86.6836C225.07 85.4531 224.426 84.3926 223.594 83.502C222.773 82.6113 221.795 81.9258 220.658 81.4453C219.521 80.9531 218.279 80.707 216.932 80.707H210.691V79.4062H216.932C218.467 79.4062 219.885 79.6816 221.186 80.2324C222.498 80.7715 223.635 81.5449 224.596 82.5527C225.557 83.5488 226.301 84.75 226.828 86.1562C227.367 87.5508 227.637 89.0977 227.637 90.7969V93.6094C227.637 95.3086 227.367 96.8613 226.828 98.2676C226.301 99.6621 225.551 100.863 224.578 101.871C223.617 102.867 222.48 103.641 221.168 104.191C219.867 104.73 218.432 105 216.861 105ZM211.236 79.4062V105H209.812V79.4062H211.236ZM240.785 80.4961L231.68 105H230.168L239.783 79.4062H240.961L240.785 80.4961ZM249.398 105L240.311 80.4961L240.135 79.4062H241.295L250.928 105H249.398ZM247.148 96.2285V97.5469H234.018V96.2285H247.148ZM260.684 79.4062V105H259.277V79.4062H260.684ZM269.789 79.4062V80.707H250.172V79.4062H269.789ZM11.4609 121.406V147H10.0547V121.406H11.4609ZM20.5664 121.406V122.707H0.949219V121.406H20.5664ZM42.4336 133.166V134.484H25.8574V133.166H42.4336ZM26.3496 121.406V147H24.9258V121.406H26.3496ZM43.4531 121.406V147H42.0293V121.406H43.4531ZM65.9883 145.699V147H51.0645V145.699H65.9883ZM51.6973 121.406V147H50.2734V121.406H51.6973ZM64.1953 133.166V134.484H51.0645V133.166H64.1953ZM65.9531 121.406V122.707H51.0645V121.406H65.9531ZM93.832 145.699V147H80.2617V145.699H93.832ZM80.8945 121.406V147H79.4531V121.406H80.8945ZM115.453 132.498V135.908C115.453 137.619 115.225 139.178 114.768 140.584C114.322 141.99 113.672 143.197 112.816 144.205C111.961 145.213 110.936 145.992 109.74 146.543C108.545 147.082 107.197 147.352 105.697 147.352C104.232 147.352 102.896 147.082 101.689 146.543C100.482 145.992 99.4453 145.213 98.5781 144.205C97.7227 143.197 97.0605 141.99 96.5918 140.584C96.1348 139.178 95.9062 137.619 95.9062 135.908V132.498C95.9062 130.775 96.1348 129.217 96.5918 127.822C97.0605 126.416 97.7227 125.209 98.5781 124.201C99.4336 123.193 100.459 122.42 101.654 121.881C102.861 121.33 104.197 121.055 105.662 121.055C107.162 121.055 108.51 121.33 109.705 121.881C110.9 122.42 111.926 123.193 112.781 124.201C113.648 125.209 114.311 126.416 114.768 127.822C115.225 129.217 115.453 130.775 115.453 132.498ZM114.047 135.908V132.463C114.047 130.963 113.859 129.598 113.484 128.367C113.109 127.125 112.559 126.059 111.832 125.168C111.117 124.277 110.244 123.592 109.213 123.111C108.182 122.619 106.998 122.373 105.662 122.373C104.361 122.373 103.195 122.619 102.164 123.111C101.133 123.592 100.26 124.277 99.5449 125.168C98.8301 126.059 98.2852 127.125 97.9102 128.367C97.5352 129.598 97.3477 130.963 97.3477 132.463V135.908C97.3477 137.42 97.5352 138.797 97.9102 140.039C98.2969 141.281 98.8477 142.348 99.5625 143.238C100.277 144.129 101.15 144.82 102.182 145.312C103.225 145.793 104.396 146.033 105.697 146.033C107.033 146.033 108.217 145.793 109.248 145.312C110.279 144.82 111.152 144.129 111.867 143.238C112.582 142.348 113.121 141.281 113.484 140.039C113.859 138.797 114.047 137.42 114.047 135.908ZM137.145 121.406H138.568V138.756C138.568 140.666 138.176 142.26 137.391 143.537C136.617 144.814 135.557 145.77 134.209 146.402C132.873 147.035 131.379 147.352 129.727 147.352C128.051 147.352 126.545 147.035 125.209 146.402C123.873 145.77 122.812 144.814 122.027 143.537C121.254 142.26 120.867 140.666 120.867 138.756V121.406H122.291V138.756C122.291 140.338 122.613 141.674 123.258 142.764C123.902 143.842 124.787 144.662 125.912 145.225C127.037 145.775 128.309 146.051 129.727 146.051C131.145 146.051 132.41 145.775 133.523 145.225C134.648 144.662 135.533 143.842 136.178 142.764C136.822 141.674 137.145 140.338 137.145 138.756V121.406ZM152.912 144.24L161.297 121.406H162.844L153.299 147H152.068L152.912 144.24ZM143.789 121.406L152.174 144.24L153.018 147H151.787L142.242 121.406H143.789ZM166.781 121.406H174.99C176.678 121.406 178.16 121.693 179.438 122.268C180.715 122.842 181.711 123.68 182.426 124.781C183.152 125.883 183.516 127.236 183.516 128.842C183.516 130.072 183.252 131.186 182.725 132.182C182.197 133.178 181.482 134.004 180.58 134.66C179.678 135.305 178.658 135.727 177.521 135.926L176.906 136.154H167.467L167.432 134.854H175.711C177.129 134.854 178.307 134.566 179.244 133.992C180.193 133.418 180.902 132.674 181.371 131.76C181.852 130.834 182.092 129.861 182.092 128.842C182.092 127.564 181.805 126.475 181.23 125.572C180.668 124.658 179.854 123.955 178.787 123.463C177.732 122.959 176.467 122.707 174.99 122.707H168.205V147H166.781V121.406ZM183.076 147L176.221 135.645L177.803 135.627L184.588 146.754V147H183.076ZM205.875 145.699V147H190.951V145.699H205.875ZM191.584 121.406V147H190.16V121.406H191.584ZM204.082 133.166V134.484H190.951V133.166H204.082ZM205.84 121.406V122.707H190.951V121.406H205.84Z" fill="#F5F2ED"/>
<path d="M293.304 241.08H286.044L345.884 79.16H353.144L293.304 241.08Z" fill="#F5F2ED"/>
<path d="M478.833 235V232.8H481.693C485.653 232.8 488.953 232.213 491.593 231.04C494.379 229.867 496.433 228.107 497.753 225.76C499.073 223.413 499.733 220.48 499.733 216.96V95.08C499.733 91.7067 499.073 88.92 497.753 86.72C496.433 84.52 494.379 82.9067 491.593 81.88C488.953 80.7067 485.653 80.12 481.693 80.12H478.833V77.92H542.853V80.12H539.993C536.033 80.12 532.659 80.7067 529.873 81.88C527.233 83.0533 525.253 84.8133 523.933 87.16C522.613 89.5067 521.953 92.44 521.953 95.96V216.96C521.953 220.48 522.613 223.413 523.933 225.76C525.253 228.107 527.233 229.867 529.873 231.04C532.659 232.213 536.033 232.8 539.993 232.8H542.853V235H478.833ZM557.414 235V232.8H559.174C563.721 232.8 567.314 232.213 569.954 231.04C572.594 229.72 574.427 227.593 575.454 224.66C576.627 221.727 577.214 217.693 577.214 212.56V139.08C577.214 134.093 576.627 130.207 575.454 127.42C574.427 124.487 572.667 122.433 570.174 121.26C567.681 119.94 564.161 119.28 559.614 119.28H558.514V117.08H597.674V137.76H598.114C600.167 130.867 603.027 125.807 606.694 122.58C610.361 119.353 614.321 117.3 618.574 116.42C622.974 115.393 627.007 114.88 630.674 114.88C643.727 114.88 653.407 118.327 659.714 125.22C666.167 131.967 669.394 142.893 669.394 158V212.56C669.394 217.693 669.907 221.727 670.934 224.66C671.961 227.593 673.647 229.72 675.994 231.04C678.487 232.213 681.787 232.8 685.894 232.8H686.994V235H648.714V150.52C648.714 140.987 646.954 133.213 643.434 127.2C639.914 121.187 633.827 118.18 625.174 118.18C618.281 118.18 612.854 120.013 608.894 123.68C604.934 127.347 602.074 132.113 600.314 137.98C598.701 143.7 597.894 149.713 597.894 156.02V212.56C597.894 217.693 598.407 221.727 599.434 224.66C600.607 227.593 602.441 229.72 604.934 231.04C607.574 232.213 611.094 232.8 615.494 232.8H616.594V235H557.414ZM707.791 130.94C706.764 128.007 705.591 125.733 704.271 124.12C703.097 122.36 701.704 121.113 700.091 120.38C698.477 119.647 696.424 119.28 693.931 119.28V117.08H748.931V119.28H743.651C738.957 119.28 735.437 119.94 733.091 121.26C730.891 122.433 729.791 124.56 729.791 127.64C729.791 128.96 730.011 130.5 730.451 132.26C730.891 133.873 731.477 135.78 732.211 137.98L749.591 186.6C751.497 191.88 753.111 196.573 754.431 200.68C755.897 204.64 757.291 208.673 758.611 212.78C760.077 216.74 761.691 221.507 763.451 227.08C764.331 224.293 765.137 221.727 765.871 219.38C766.604 217.033 767.411 214.613 768.291 212.12C769.171 209.627 770.197 206.767 771.371 203.54L793.591 139.3C794.324 136.953 794.911 134.9 795.351 133.14C795.791 131.38 796.011 129.767 796.011 128.3C796.011 124.927 794.691 122.58 792.051 121.26C789.557 119.94 785.524 119.28 779.951 119.28H772.691V117.08H819.771V119.28H813.611C810.824 119.28 808.404 119.793 806.351 120.82C804.444 121.847 802.757 123.607 801.291 126.1C799.824 128.593 798.357 132.04 796.891 136.44L763.011 235H745.631L707.791 130.94ZM825.513 235V232.8H828.373C832.773 232.8 836.293 232.213 838.933 231.04C841.573 229.867 843.48 228.033 844.653 225.54C845.826 223.047 846.413 219.82 846.413 215.86V136.44C846.413 132.333 845.826 129.033 844.653 126.54C843.48 124.047 841.573 122.213 838.933 121.04C836.293 119.867 832.773 119.28 828.373 119.28H827.713V117.08H867.093V214.76C867.093 219.16 867.68 222.68 868.853 225.32C870.026 227.96 871.933 229.867 874.573 231.04C877.36 232.213 880.88 232.8 885.133 232.8H887.993V235H825.513ZM855.653 95.96C852.866 95.96 850.52 95.08 848.613 93.32C846.853 91.4133 845.973 88.1867 845.973 83.64C845.973 78.9467 846.853 75.72 848.613 73.96C850.52 72.2 852.866 71.32 855.653 71.32C858.293 71.32 860.566 72.2 862.473 73.96C864.38 75.72 865.333 78.9467 865.333 83.64C865.333 88.1867 864.38 91.4133 862.473 93.32C860.566 95.08 858.293 95.96 855.653 95.96ZM943.722 237.2C932.575 237.2 924.435 234.707 919.302 229.72C914.315 224.587 911.822 215.713 911.822 203.1V119.28H895.102V117.08C900.382 117.08 904.929 116.64 908.742 115.76C912.702 114.733 916.075 113.193 918.862 111.14C921.795 109.087 924.142 106.3 925.902 102.78C927.809 99.26 929.275 95.0067 930.302 90.02H932.502V117.08H963.302V119.28H932.502V211.24C932.502 218.867 933.969 224.587 936.902 228.4C939.835 232.213 944.162 234.12 949.882 234.12C951.935 234.12 954.062 233.9 956.262 233.46C958.462 233.02 960.809 232.36 963.302 231.48V233.68C961.395 234.56 958.535 235.367 954.722 236.1C950.909 236.833 947.242 237.2 943.722 237.2ZM1032.51 237.2C1016.08 237.2 1003.25 231.92 994.006 221.36C984.912 210.8 980.366 195.987 980.366 176.92C980.366 156.387 984.619 140.913 993.126 130.5C1001.63 120.087 1013.66 114.88 1029.21 114.88C1043.43 114.88 1054.58 119.28 1062.65 128.08C1070.86 136.88 1074.97 150.007 1074.97 167.46V172.74H1001.71C1001.85 187.7 1002.95 199.727 1005.01 208.82C1007.06 217.913 1010.36 224.587 1014.91 228.84C1019.6 232.947 1025.69 235 1033.17 235C1038.74 235 1043.65 233.973 1047.91 231.92C1052.31 229.867 1055.97 226.86 1058.91 222.9C1061.84 218.793 1063.82 213.807 1064.85 207.94C1066.61 208.233 1067.93 209.113 1068.81 210.58C1069.69 212.047 1070.13 213.587 1070.13 215.2C1070.13 218.133 1068.73 221.36 1065.95 224.88C1063.16 228.253 1058.98 231.187 1053.41 233.68C1047.98 236.027 1041.01 237.2 1032.51 237.2ZM1052.75 170.54C1052.75 157.633 1051.94 147.293 1050.33 139.52C1048.71 131.747 1046.15 126.1 1042.63 122.58C1039.11 118.913 1034.49 117.08 1028.77 117.08C1022.75 117.08 1017.84 118.913 1014.03 122.58C1010.21 126.1 1007.35 131.747 1005.45 139.52C1003.54 147.293 1002.29 157.633 1001.71 170.54H1052.75Z" fill="white"/>
<path d="M914.351 446V443.8H919.411C923.371 443.8 926.671 443.213 929.311 442.04C932.098 440.867 934.151 439.107 935.471 436.76C936.791 434.413 937.451 431.48 937.451 427.96V377.14L898.291 302.78C896.824 299.847 895.358 297.573 893.891 295.96C892.424 294.2 890.811 292.953 889.051 292.22C887.291 291.487 885.164 291.12 882.671 291.12H878.271V288.92H938.771V291.12H931.291C927.918 291.12 925.351 291.56 923.591 292.44C921.978 293.32 921.171 294.86 921.171 297.06C921.171 298.527 921.538 300.287 922.271 302.34C923.004 304.393 924.104 306.887 925.571 309.82L944.491 346.34C946.104 349.273 947.571 352.133 948.891 354.92C950.211 357.56 951.458 360.127 952.631 362.62C953.804 364.967 954.904 367.24 955.931 369.44C956.958 371.493 957.838 373.4 958.571 375.16C960.331 371.787 962.458 367.533 964.951 362.4C967.591 357.267 970.378 351.913 973.311 346.34L990.031 314C991.791 310.627 993.111 307.693 993.991 305.2C994.871 302.707 995.311 300.58 995.311 298.82C995.311 295.887 994.138 293.907 991.791 292.88C989.444 291.707 985.778 291.12 980.791 291.12H971.991V288.92H1019.07V291.12H1013.57C1011.22 291.12 1009.1 291.633 1007.19 292.66C1005.43 293.687 1003.6 295.447 1001.69 297.94C999.931 300.433 997.878 303.88 995.531 308.28L959.671 377.58V427.96C959.671 431.48 960.331 434.413 961.651 436.76C962.971 439.107 964.951 440.867 967.591 442.04C970.378 443.213 973.751 443.8 977.711 443.8H982.771V446H914.351ZM1064.54 448.2C1048.7 448.2 1036.24 443.14 1027.14 433.02C1018.05 422.9 1013.5 407.5 1013.5 386.82C1013.5 366.287 1017.83 351.033 1026.48 341.06C1035.28 330.94 1048.19 325.88 1065.2 325.88C1081.04 325.88 1093.51 330.94 1102.6 341.06C1111.7 351.033 1116.24 366.287 1116.24 386.82C1116.24 407.5 1111.84 422.9 1103.04 433.02C1094.39 443.14 1081.56 448.2 1064.54 448.2ZM1064.98 446C1072.17 446 1077.96 444.02 1082.36 440.06C1086.76 436.1 1089.92 429.793 1091.82 421.14C1093.88 412.487 1094.9 401.047 1094.9 386.82C1094.9 372.74 1093.88 361.373 1091.82 352.72C1089.92 344.067 1086.76 337.833 1082.36 334.02C1077.96 330.06 1072.1 328.08 1064.76 328.08C1057.58 328.08 1051.78 330.06 1047.38 334.02C1042.98 337.833 1039.76 344.067 1037.7 352.72C1035.8 361.373 1034.84 372.74 1034.84 386.82C1034.84 401.047 1035.8 412.487 1037.7 421.14C1039.76 429.793 1042.98 436.1 1047.38 440.06C1051.93 444.02 1057.8 446 1064.98 446ZM1190.64 448.2C1177.73 448.2 1168.05 444.827 1161.6 438.08C1155.29 431.187 1152.14 420.187 1152.14 405.08V350.08C1152.14 345.093 1151.55 341.207 1150.38 338.42C1149.35 335.487 1147.52 333.433 1144.88 332.26C1142.24 330.94 1138.64 330.28 1134.1 330.28H1133.44V328.08H1172.82V406.18C1172.82 415.567 1173.48 423.12 1174.8 428.84C1176.12 434.413 1178.32 438.52 1181.4 441.16C1184.62 443.8 1188.88 445.12 1194.16 445.12C1200.76 445.12 1206.18 443.433 1210.44 440.06C1214.84 436.54 1218.14 431.48 1220.34 424.88C1222.54 418.133 1223.64 410.067 1223.64 400.68V350.08C1223.64 345.093 1223.05 341.207 1221.88 338.42C1220.85 335.487 1219.02 333.433 1216.38 332.26C1213.74 330.94 1210.14 330.28 1205.6 330.28H1204.94V328.08H1244.32V424.22C1244.32 429.207 1244.83 433.167 1245.86 436.1C1247.03 438.887 1248.94 440.867 1251.58 442.04C1254.22 443.213 1257.81 443.8 1262.36 443.8H1263.02V446H1225.18V415.86H1224.74C1223.56 423.34 1221.66 429.28 1219.02 433.68C1216.52 437.933 1213.59 441.087 1210.22 443.14C1206.99 445.193 1203.62 446.513 1200.1 447.1C1196.72 447.833 1193.57 448.2 1190.64 448.2ZM1266.92 473.06V468.66H1370.1V473.06H1266.92Z" fill="white"/>
</svg>
