<svg width="192" height="32" viewBox="0 0 192 32" fill="none" xmlns="http://www.w3.org/2000/svg">
<path d="M0.800191 0.356343C0.800191 0.556391 1.52036 0.796448 2.40057 0.956486C4.92118 1.35658 5.0012 1.63665 5.12122 13.5995C5.28126 24.7622 5.08121 28.6831 4.24101 29.8034C3.96095 30.2035 3.00072 30.5636 1.88045 30.6836C0.640153 30.8436 0 31.0837 0 31.4438C0 31.9239 2.40057 32.0039 13.9233 32.0039H27.8467L28.5268 28.4831C28.8869 26.5226 29.207 24.7222 29.207 24.4821C29.207 23.5219 28.1667 24.082 27.0065 25.7224C24.5259 29.1232 20.5249 30.8036 14.8035 30.8036C10.6425 30.8036 10.0824 30.6036 9.6023 28.8432C9.08217 26.9627 9.08217 5.03746 9.6023 3.15701C10.0424 1.59664 11.2427 0.796448 13.2032 0.796448C13.8833 0.796448 14.4034 0.5964 14.4034 0.396352C14.4034 0.156295 11.8828 -0.00374329 7.60182 -0.00374329C3.88093 -0.00374329 0.800191 0.156295 0.800191 0.356343Z" fill="white"/>
<path d="M44.8509 10.4388C40.6899 12.5193 38.4893 16.7203 38.9294 21.6814C39.3295 26.2825 42.0502 29.9634 46.1312 31.4838C47.9716 32.1639 53.2129 32.1239 55.2133 31.4038C60.6146 29.4833 63.6153 23.0818 61.8549 17.1604C60.9347 13.8796 59.2943 11.9191 56.3736 10.4388C54.2131 9.3585 53.4929 9.19846 50.6122 9.19846C47.7315 9.19846 47.0114 9.3585 44.8509 10.4388ZM53.893 10.4388C57.6939 11.639 59.9745 17.7605 58.8142 23.7619C57.854 28.8031 55.0933 31.3638 50.6122 31.3638C46.1312 31.3638 43.3705 28.8031 42.4103 23.7619C41.6101 19.4409 42.4503 14.9198 44.4908 12.5593C46.9313 9.7986 49.692 9.15845 53.893 10.4388Z" fill="white"/>
<path d="M73.2175 9.55854C73.2175 9.75859 73.6976 10.0387 74.2978 10.1987C74.8979 10.3187 75.5381 10.6788 75.6981 10.9189C75.8582 11.1989 76.0182 14.7198 76.0182 18.8008C76.0182 25.1223 76.1382 26.4426 76.7784 27.8029C78.1787 30.8836 80.4593 32.0039 85.1804 32.0039C88.6612 32.0039 90.1416 31.6038 91.5419 30.2835C93.4624 28.5231 93.7024 27.4028 94.1025 19.6009C94.4626 11.8791 94.7427 10.7188 96.4231 10.1987C98.2635 9.63856 96.9832 9.19846 93.4224 9.19846C89.5414 9.19846 88.6212 9.59855 90.9418 10.2387C92.9422 10.8388 93.1423 11.7191 92.8222 19.2409C92.5421 26.5226 92.062 28.203 89.9015 29.7634C88.3011 30.9236 83.9801 30.9236 82.0196 29.8034C79.379 28.243 79.0189 27.0427 78.8989 19.4009C78.7388 11.279 78.9389 10.5188 81.2194 10.1587C84.3002 9.63856 82.7798 9.19846 78.0187 9.19846C75.378 9.19846 73.2175 9.3585 73.2175 9.55854Z" fill="white"/>
<path d="M107.626 9.59856C107.626 9.79861 108.066 10.0787 108.586 10.2387C109.146 10.3587 109.826 10.9989 110.186 11.7191C111.027 13.5195 117.868 30.0434 118.188 31.1237C118.668 32.5641 119.389 32.1239 120.189 29.8834C120.589 28.7631 122.509 24.2821 124.47 20.001C127.19 13.9996 128.351 11.9191 129.431 10.9589C130.191 10.2787 130.831 9.59856 130.831 9.43852C130.831 9.31849 129.111 9.19847 127.03 9.19847C124.95 9.19847 123.229 9.3585 123.229 9.51854C123.229 9.67858 123.83 10.0387 124.59 10.3187C126.31 10.9589 126.55 11.9191 125.63 14.5998C124.87 16.8003 121.589 24.4821 120.549 26.5626L119.949 27.6829L117.748 22.3616C113.267 11.439 113.107 10.6388 115.668 10.1187C118.188 9.63857 116.628 9.19847 112.227 9.19847C109.466 9.19847 107.626 9.3585 107.626 9.59856Z" fill="white"/>
<path d="M141.634 9.43851C141.634 9.63856 142.194 10.0387 142.834 10.2787L144.035 10.7188V20.3211C144.035 30.6036 143.915 31.2037 141.994 31.2037C141.594 31.2037 141.234 31.3638 141.234 31.6038C141.234 31.8439 142.954 32.0039 145.635 32.0039C148.316 32.0039 150.036 31.8439 150.036 31.6038C150.036 31.3638 149.676 31.2037 149.276 31.2037C147.595 31.2037 147.235 30.2035 147.235 25.5624V21.2013H148.756C150.276 21.2013 150.276 21.2413 153.677 26.4826L157.118 31.8039L159.358 31.9239C161.879 32.0439 162.199 31.7238 160.478 30.7236C159.798 30.3635 157.958 28.043 156.117 25.3223L152.917 20.5612L154.717 19.841C157.118 18.8408 158.118 17.2004 157.918 14.6798C157.598 10.8388 155.077 9.55854 147.155 9.27847C143.915 9.15844 141.634 9.23846 141.634 9.43851ZM152.757 11.1589C154.117 11.8791 154.957 13.8796 154.717 15.8801C154.437 18.6407 153.157 19.5609 148.916 20.1611L147.195 20.4011L147.315 15.52C147.435 10.6788 147.435 10.6388 148.436 10.3987C149.556 10.1187 151.436 10.4388 152.757 11.1589Z" fill="white"/>
<path d="M172.041 9.51853C172.041 9.71858 172.641 10.0387 173.362 10.2387L174.642 10.6388L174.762 19.801C174.802 24.8822 174.762 29.4033 174.642 29.8834C174.482 30.5236 174.042 30.8436 173.041 31.0437C169.601 31.6838 172.321 32.0039 181.203 32.0039H190.766L191.246 29.8834C191.486 28.7631 191.806 27.4828 191.926 27.0827C192.246 25.8824 191.486 26.3225 190.486 27.8829C188.925 30.4435 187.965 30.8836 183.884 31.0837C181.764 31.2037 179.763 31.0837 179.123 30.8436L178.003 30.4035L178.123 25.5224L178.243 20.6012L179.643 20.4812C180.403 20.4011 181.804 20.4411 182.764 20.6012C184.364 20.8412 184.604 21.0013 185.164 22.4416C185.484 23.2818 185.925 24.002 186.125 24.002C186.285 24.002 186.445 22.2816 186.445 20.2011C186.445 16.3202 186.005 15.3599 185.204 17.4804C184.644 19.0408 184.204 19.2008 180.923 19.2008H178.003L178.123 14.9198L178.243 10.6388L179.803 10.2787C180.763 10.0387 182.284 10.0387 183.964 10.3187C186.045 10.6788 186.845 11.0389 187.885 12.0391C188.645 12.7593 189.325 13.2394 189.485 13.1194C189.605 12.9594 189.565 12.0791 189.365 11.1189L189.005 9.39851L180.523 9.27848C175.842 9.23847 172.041 9.3585 172.041 9.51853Z" fill="white"/>
</svg>
