<svg width="404" height="404" viewBox="0 0 404 404" fill="none" xmlns="http://www.w3.org/2000/svg">
<path d="M203.339 38.6768L203.473 37.3412C207.524 37.7419 208.637 36.6289 208.86 34.4473L211.842 5.59798C212.11 3.10483 211.175 2.21442 207.123 1.76921L207.257 0.433594L221.192 1.85825L221.058 3.19387C216.473 2.70414 215.449 3.41647 215.182 5.90963L212.199 34.759C211.976 36.9405 212.822 38.2761 215.76 38.5432L221.236 39.122C226.356 39.6563 231.12 36.8515 234.593 31.9542L235.527 32.5775L230.675 41.4371L203.25 38.5878L203.339 38.6768Z" fill="white"/>
<path d="M269.185 32.1751C266.381 41.8361 258.233 49.8498 247.148 46.5998C236.552 43.4833 234.059 32.3532 236.863 22.6922C239.713 12.9867 247.815 4.88395 258.411 8.0004C269.497 11.2504 271.99 22.4251 269.185 32.1306V32.1751ZM240.291 23.7162C237.665 32.7093 239.178 42.9046 247.504 45.3087C256.23 47.8463 262.997 40.0998 265.624 31.1066C268.25 22.1134 266.737 11.8737 258.011 9.33601C249.685 6.88738 242.918 14.723 240.291 23.6717V23.7162Z" fill="white"/>
<path d="M278.939 15.169L290.96 21.491L290.336 22.693C286.997 20.9122 285.35 21.1348 284.281 23.1382L274.042 42.5492C271.014 48.3369 273.24 54.5698 279.384 57.8198C283.881 60.1794 290.47 60.9807 294.61 53.1451L304.761 33.9122C305.829 31.9088 305.251 30.5732 301.734 28.7033L302.357 27.5012L312.775 32.9773L312.151 34.1793C308.59 32.3095 307.165 32.6211 306.097 34.6245L295.812 54.1691C291.805 61.7821 284.771 62.6725 277.158 58.6212C270.881 55.3266 267.007 48.7376 271.37 40.4567L281.343 21.5355C282.412 19.5321 282.011 18.241 278.36 16.3266L278.984 15.1245L278.939 15.169Z" fill="white"/>
<path d="M334.455 50.5179L343.538 57.9083L342.692 58.9323C339.887 56.6172 338.907 56.6172 336.058 58.3535L304.76 76.9631L304.048 76.3844L316.425 41.3021C317.048 39.6103 317.181 38.0966 314.154 35.648L315 34.624L325.507 43.2165L324.661 44.2405C321.812 41.9254 320.609 41.2131 319.808 42.148C319.63 42.3706 319.452 42.6823 319.318 43.1275L308.901 72.7782L334.856 57.285C335.524 56.9289 336.014 56.5282 336.325 56.1275C337.171 55.1035 336.503 53.946 333.61 51.5864L334.455 50.5624V50.5179Z" fill="white"/>
<path d="M315.756 84.4868L316.78 83.6409C319.362 86.7128 320.965 86.7128 322.968 85.0655L344.961 66.5895C346.742 65.0758 346.742 63.6956 344.16 60.6237L345.184 59.7778L356.359 73.0895C361.701 79.4114 361.389 85.2881 357.205 88.8053C353.376 92.0553 347.9 92.3669 343.002 87.1135L336.814 103.675C336.013 105.812 336.636 107.281 338.417 109.418L337.393 110.264L332.763 104.744L340.598 84.3532L335.835 78.6546L325.105 87.6477C323.146 89.295 323.102 91.1649 325.506 94.0142L324.482 94.8601L315.756 84.4868ZM336.859 77.7642L343.225 85.3327C347.054 89.8738 351.55 88.6717 354.8 85.9114C358.674 82.6614 358.852 78.1203 355.157 73.7128L352.085 70.0621C350.482 68.1477 348.924 67.6135 347.143 69.1272L336.859 77.7642Z" fill="white"/>
<path d="M335.033 106.747L336.191 106.079C337.972 109.24 339.663 109.953 341.889 108.662L366.776 94.4595C368.913 93.2575 369.047 91.5212 367.222 88.3602L368.379 87.6924L382.27 112.045L376.215 119.792L375.369 119.347C376.883 115.429 380.177 111.066 376.081 103.853L373.499 99.3123C372.119 96.9082 370.561 96.1068 368.424 97.3534L357.249 103.72L361.256 110.754C363.126 114.004 365.53 114.984 369.937 112.446L370.561 113.559L357.561 120.994L356.937 119.881C361.078 117.521 361.879 114.716 360.009 111.466L356.002 104.432L343.581 111.511C341.355 112.802 341.088 114.583 342.513 117.031L345.006 121.394C348.078 126.781 352.174 128.785 359.475 129.586L359.564 130.655L349.591 132.168L335.033 106.703V106.747Z" fill="white"/>
<path d="M357.65 151.891L358.941 151.624C359.787 155.587 361.212 156.343 363.349 155.854L391.709 149.71C394.157 149.176 394.736 148.018 393.89 144.056L395.181 143.789L398.164 157.456L396.873 157.724C395.894 153.227 394.914 152.47 392.466 153.004L364.106 159.148C361.969 159.593 360.945 160.795 361.613 163.734L362.77 169.121C363.839 174.152 367.979 177.847 373.722 179.583L373.411 180.696L363.483 178.871L357.65 151.936V151.891Z" fill="white"/>
<path d="M384.319 212.35C374.302 212.662 364.107 207.453 363.751 195.922C363.394 184.881 373.189 179.049 383.206 178.692C393.312 178.381 403.508 183.545 403.864 194.586C404.264 206.117 394.381 211.994 384.319 212.35ZM383.34 182.299C373.99 182.61 364.775 187.24 365.086 195.877C365.398 204.96 374.881 208.967 384.23 208.655C393.579 208.343 402.84 203.713 402.528 194.631C402.261 185.994 392.689 181.987 383.34 182.299Z" fill="white"/>
<path d="M403.55 216.225L401.324 229.625L399.988 229.403C400.612 225.663 399.899 224.194 397.673 223.838L375.992 220.231C369.581 219.163 364.327 223.259 363.17 230.115C362.324 235.101 363.659 241.601 372.385 243.07L393.844 246.632C396.07 246.988 397.183 246.053 397.851 242.091L399.187 242.314L397.272 253.889L395.937 253.666C396.605 249.704 395.848 248.457 393.622 248.101L371.851 244.495C363.348 243.07 360.32 236.66 361.745 228.201C362.903 221.211 367.933 215.468 377.149 216.981L398.252 220.499C400.478 220.855 401.591 220.053 402.259 216.002L403.594 216.225H403.55Z" fill="white"/>
<path d="M387.435 280.066L383.25 290.974L382.003 290.484C383.294 287.1 383.027 286.165 380.49 284.029L353.021 260.165L353.332 259.32L390.507 260.121C392.332 260.165 393.757 259.809 395.181 256.203L396.428 256.693L391.575 269.337L390.329 268.847C391.664 265.419 391.932 264.039 390.818 263.594C390.551 263.505 390.195 263.415 389.75 263.415L358.363 262.792L381.202 282.559C381.736 283.049 382.315 283.45 382.76 283.628C384.007 284.118 384.897 283.138 386.233 279.621L387.479 280.111L387.435 280.066Z" fill="white"/>
<path d="M349.323 273.033L350.436 273.746C348.344 277.129 348.789 278.687 350.971 280.067L375.368 295.204C377.371 296.451 378.662 296.006 380.755 292.578L381.868 293.29L372.741 308.026C368.378 315.061 362.724 316.574 358.094 313.725C353.82 311.098 351.816 306.023 355.289 299.746L337.614 299.033C335.344 298.944 334.142 299.968 332.673 302.372L331.56 301.66L335.344 295.516L357.159 296.585L361.077 290.263L349.19 282.917C347.008 281.581 345.227 282.115 343.269 285.276L342.155 284.564L349.279 273.033H349.323ZM362.279 290.975L357.07 299.389C353.953 304.42 356.491 308.338 360.142 310.564C364.46 313.235 368.823 311.989 371.851 307.091L374.344 303.04C375.679 300.903 375.68 299.256 373.676 298.054L362.279 290.975Z" fill="white"/>
<path d="M334.188 298.276L335.168 299.166C332.719 301.882 332.585 303.707 334.5 305.399L355.781 324.588C357.606 326.235 359.298 325.79 361.702 323.118L362.681 324.009L343.894 344.844L334.633 341.55L334.767 340.615C338.996 340.793 344.116 342.574 349.681 336.43L353.198 332.557C355.068 330.509 355.335 328.773 353.465 327.125L343.894 318.488L338.462 324.499C335.969 327.259 335.791 329.841 339.575 333.269L338.729 334.204L327.599 324.187L328.445 323.252C331.962 326.457 334.9 326.324 337.394 323.564L342.825 317.553L332.185 307.981C330.27 306.245 328.489 306.601 326.575 308.694L323.191 312.433C319.051 317.019 318.383 321.56 319.941 328.728L318.962 329.173L314.421 320.18L334.099 298.409L334.188 298.276Z" fill="white"/>
<path d="M298.392 333.847L299.06 335.004C295.543 337.052 295.32 338.655 296.433 340.525L311.17 365.501C312.461 367.682 313.707 367.816 317.224 365.768L317.892 366.925L305.827 374.049L305.159 372.891C309.122 370.576 309.522 369.374 308.276 367.193L293.539 342.217C292.426 340.347 290.957 339.768 288.375 341.282L283.656 344.086C279.248 346.713 277.022 351.789 277.156 357.799H275.998L274.618 347.871L298.348 333.847H298.392Z" fill="white"/>
<path d="M249.419 378.235C245.946 368.797 247.683 357.533 258.546 353.526C268.919 349.697 277.556 357.177 281.028 366.615C284.501 376.098 282.809 387.406 272.436 391.235C261.617 395.242 252.936 387.718 249.419 378.235ZM277.645 367.817C274.395 359.047 267.138 351.79 258.991 354.773C250.487 357.934 249.641 368.173 252.891 376.944C256.141 385.714 263.443 393.06 271.946 389.899C280.049 386.917 280.895 376.588 277.645 367.817Z" fill="white"/>
<path d="M251.514 397.689L238.069 399.737L237.89 398.401C241.63 397.823 242.832 396.665 242.476 394.439L239.182 372.713C238.202 366.258 232.682 362.562 225.781 363.586C220.75 364.343 214.962 367.593 216.298 376.364L219.548 397.867C219.904 400.093 221.151 400.85 225.113 400.271L225.291 401.607L213.671 403.388L213.493 402.052C217.455 401.429 218.435 400.316 218.079 398.09L214.784 376.275C213.493 367.771 218.658 362.874 227.161 361.583C234.195 360.514 241.185 363.497 242.61 372.758L245.815 393.905C246.171 396.131 247.24 396.932 251.336 396.309L251.514 397.645V397.689Z" fill="white"/>
<path d="M185.934 402.32L174.225 401.786V400.45C177.92 400.628 178.677 400.05 179.968 396.978L194.036 363.409H194.927L205.879 399.026C206.368 400.762 207.17 402.009 211.088 402.231V403.567L197.464 402.944V401.608C201.204 401.786 202.629 401.608 202.673 400.406C202.673 400.139 202.673 399.783 202.495 399.337L193.19 369.286L181.615 397.2C181.303 397.868 181.125 398.536 181.081 398.981C181.036 400.317 182.238 400.851 185.978 401.029V402.365L185.934 402.32Z" fill="white"/>
<path d="M180.769 363.9L180.457 365.191C176.539 364.256 175.248 365.191 174.625 367.684L167.947 395.643C167.413 397.913 168.258 399.026 172.132 399.961L171.82 401.252L154.947 397.201C146.889 395.287 143.683 390.389 144.93 385.091C146.087 380.194 150.272 376.722 157.351 378.013L152.454 361.006C151.83 358.824 150.495 358.023 147.734 357.355L148.046 356.064L155.08 357.756L160.913 378.814L168.125 380.55L171.375 366.927C171.954 364.434 170.93 362.92 167.279 362.03L167.591 360.739L180.769 363.9ZM167.813 381.841L158.197 379.526C152.409 378.146 149.515 381.797 148.536 385.937C147.334 390.879 149.916 394.619 155.526 395.954L160.156 397.067C162.604 397.646 164.163 397.156 164.697 394.841L167.813 381.797V381.841Z" fill="white"/>
<path d="M152.052 357.488L151.517 358.69C148.178 357.221 146.442 357.666 145.374 360.026L133.798 386.204C132.819 388.43 133.754 389.899 137.048 391.368L136.514 392.57L110.87 381.218L111.137 371.423L112.072 371.245C113.185 375.296 113.141 380.772 120.709 384.111L125.517 386.248C128.055 387.361 129.747 387.094 130.771 384.824L135.98 373.07L128.545 369.776C125.117 368.262 122.624 368.93 120.576 373.56L119.418 373.026L125.473 359.358L126.63 359.892C124.716 364.255 125.74 366.971 129.124 368.485L136.559 371.779L142.346 358.69C143.37 356.331 142.524 354.728 139.942 353.57L135.356 351.522C129.702 349.029 125.206 349.831 118.884 353.526L118.171 352.724L125.295 345.601L152.096 357.444L152.052 357.488Z" fill="white"/>
<path d="M107.001 334.605L106.11 335.629C103.038 332.958 101.48 333.225 100.055 334.872L80.9561 356.687C79.3088 358.557 79.5314 359.848 82.6033 362.52L81.7129 363.544L71.2061 354.328L72.0965 353.304C75.5691 356.331 76.8157 356.376 78.4629 354.461L97.5623 332.646C98.9869 330.999 99.076 329.441 96.8499 327.482L92.7095 323.876C88.8362 320.492 83.3157 320.002 77.6615 322.006L77.2609 320.937L86.2985 316.53L107.001 334.694V334.605Z" fill="white"/>
<path d="M49.5666 301.882C57.4467 295.649 68.7104 293.779 75.8782 302.816C82.7344 311.498 78.3714 322.005 70.4913 328.238C62.5666 334.515 51.3029 336.43 44.4022 327.793C37.2344 318.755 41.6419 308.159 49.5666 301.882ZM68.2652 325.433C75.6111 319.601 80.2413 310.429 74.8543 303.618C69.2002 296.495 59.183 298.943 51.8816 304.731C44.5803 310.519 39.9056 319.779 45.5152 326.902C50.9022 333.669 60.9638 331.221 68.2652 325.433Z" fill="white"/>
<path d="M31.8914 310.207L25.7475 298.142L26.9496 297.518C28.6859 300.902 30.1551 301.659 32.114 300.635L51.6585 290.662C57.4462 287.724 59.227 281.313 56.0661 275.124C53.751 270.628 48.8537 266.176 40.9736 270.183L21.6071 280.066C19.6037 281.09 19.2475 282.515 21.0728 286.076L19.8708 286.7L14.5283 276.237L15.7304 275.614C17.5557 279.176 18.9359 279.755 20.8948 278.731L40.5284 268.713C48.1859 264.796 54.4633 268.135 58.3366 275.792C61.5421 282.114 60.9188 289.683 52.5934 293.912L33.5831 303.618C31.5797 304.642 31.179 305.933 33.0489 309.583L31.8468 310.207H31.8914Z" fill="white"/>
<path d="M6.78441 249.213L3.66797 237.949L4.95907 237.593C5.93852 241.11 6.69537 241.644 10.0344 241.911L46.3187 244.761L46.5413 245.651L16.1783 267.154C14.7091 268.178 13.7296 269.336 14.7536 273.076L13.4625 273.432L9.85633 260.343L11.1474 259.987C12.1269 263.548 12.7057 264.839 13.9077 264.483C14.1748 264.394 14.531 264.261 14.8872 263.993L40.531 245.785L10.3906 243.47C9.63373 243.38 9.01044 243.425 8.52072 243.559C7.22962 243.915 7.09606 245.25 8.07551 248.812L6.78441 249.168V249.213Z" fill="white"/>
<path d="M41.6424 232.341L40.3068 232.43C39.9952 228.423 38.6596 227.488 36.1219 227.666L7.45061 230.026C5.09102 230.204 4.33417 231.361 4.69033 235.368L3.35471 235.457L1.93005 218.139C1.26224 209.902 4.86841 205.272 10.2999 204.827C15.2862 204.426 19.9609 207.32 20.8958 214.399L35.4986 204.426C37.3685 203.135 37.7246 201.621 37.502 198.772L38.8376 198.683L39.4164 205.851L21.2075 217.961L21.8308 225.351L35.7657 224.193C38.3034 223.971 39.4164 222.502 39.1048 218.762L40.4404 218.673L41.5534 232.207L41.6424 232.341ZM20.5397 225.618L19.7383 215.779C19.2486 209.858 14.8856 208.255 10.6116 208.611C5.53622 209.012 2.77595 212.618 3.26567 218.406L3.66636 223.125C3.88896 225.618 4.82389 226.954 7.18349 226.731L20.5397 225.618Z" fill="white"/>
<path d="M38.8364 202.958L37.5008 202.824C37.8569 199.218 36.8775 197.66 34.3398 197.437L5.84661 194.677C3.39797 194.455 2.28496 195.79 1.97331 199.396L0.637695 199.263L3.35345 171.348L12.7473 168.499L13.1925 169.345C9.67538 171.705 4.46647 173.352 3.6651 181.588L3.17537 186.797C2.90825 189.557 3.70962 191.071 6.15825 191.338L18.9802 192.585L19.7816 184.482C20.1377 180.742 18.7576 178.605 13.6822 178.071L13.8158 176.78L28.7302 178.205L28.5966 179.496C23.8775 179.05 21.6069 180.876 21.2507 184.571L20.4494 192.674L34.696 194.054C37.2336 194.321 38.5247 192.985 38.7919 190.136L39.2816 185.15C39.8604 178.961 37.6788 174.955 32.2028 170.146L32.7371 169.211L41.7302 173.752L38.8809 202.958H38.8364Z" fill="white"/>
<path d="M46.3617 153.139L45.1151 152.605C46.7178 148.865 45.961 147.441 43.9575 146.595L17.2452 135.287C14.9301 134.307 13.8171 134.93 12.2144 138.67L10.9678 138.136L16.4438 125.269L17.6904 125.804C15.9096 130.033 16.2657 131.235 18.5808 132.215L45.2932 143.523C47.2966 144.369 48.8103 143.968 49.9678 141.208L52.1048 136.133C54.1082 131.413 52.8617 126.026 49.1665 121.263L50.0569 120.55L57.0911 127.763L46.3171 153.139H46.3617Z" fill="white"/>
<path d="M59.4512 88.3165C67.8211 93.8371 73.119 103.943 66.7971 113.604C60.7423 122.865 49.345 121.974 40.9752 116.454C32.5162 110.888 27.1738 100.782 33.2286 91.5665C39.5505 81.9056 50.9923 82.796 59.4512 88.3611V88.3165ZM42.9341 113.426C50.7252 118.546 60.9204 120.104 65.6841 112.847C70.6704 105.279 65.2389 96.5083 57.4478 91.3885C49.6567 86.2686 39.4169 84.7104 34.4306 92.2789C29.6669 99.4912 35.143 108.306 42.9786 113.426H42.9341Z" fill="white"/>
<path d="M46.1406 73.9802L55.7126 64.3638L56.6475 65.2987C53.9763 67.97 53.7091 69.6172 55.3119 71.1754L70.8941 86.6241C75.5242 91.2097 82.1578 90.8981 87.0551 85.9563C90.6167 82.3501 93.3325 76.2953 87.0551 70.0624L71.6064 54.7473C70.0037 53.1891 68.5345 53.2782 65.7297 56.1275L64.7948 55.1925L73.0756 46.8672L74.0105 47.8021C71.2057 50.6514 71.0722 52.1206 72.6749 53.6788L88.3462 69.2165C94.4455 75.2713 93.2434 82.2611 87.1886 88.3604C82.2023 93.3912 74.7674 95.1721 68.1338 88.583L52.9523 73.535C51.3495 71.9768 50.0139 71.9768 47.1201 74.8706L46.1851 73.9357L46.1406 73.9802Z" fill="white"/>
<path d="M96.1364 31.1524L105.886 24.6523L106.643 25.7654C103.616 27.7688 103.304 28.7037 104.15 31.9537L112.787 67.3031L112.03 67.7928L82.1124 45.7106C80.6878 44.5976 79.2631 44.0633 76.0576 46.2448L75.3008 45.1318L86.5645 37.6078L87.3213 38.7209C84.2494 40.7688 83.2254 41.7037 83.8933 42.7277C84.0268 42.9503 84.2939 43.2174 84.6501 43.4846L109.938 62.1387L102.681 32.7996C102.503 32.0873 102.28 31.464 102.013 31.0633C101.256 29.9503 99.9652 30.2174 96.8933 32.3099L96.1364 31.1969V31.1524Z" fill="white"/>
<path d="M123.026 58.9768L122.492 57.7302C126.187 56.172 126.677 54.6138 125.698 52.2542L114.434 25.8089C113.499 23.6274 112.208 23.2713 108.513 24.8295L107.979 23.5829L123.961 16.7713C131.574 13.5212 137.095 15.5247 139.232 20.5555C141.191 25.1856 139.9 30.4836 133.489 33.6446L147.513 44.4186C149.338 45.7987 150.896 45.6651 153.479 44.5521L154.013 45.7987L147.379 48.6035L130.15 35.1583L123.294 38.0521L128.77 50.9186C129.794 53.2782 131.53 53.8569 134.958 52.3877L135.492 53.6343L122.982 58.9323L123.026 58.9768ZM122.804 36.85L131.886 32.9768C137.362 30.6617 137.496 25.987 135.848 22.0692C133.845 17.3945 129.571 15.9254 124.273 18.1514L119.91 20.0213C117.595 21.0007 116.66 22.3363 117.595 24.5178L122.848 36.85H122.804Z" fill="white"/>
<path d="M149.963 47.091L149.651 45.8C153.213 44.9986 154.37 43.5739 153.792 41.0808L147.514 13.1663C146.98 10.7622 145.377 10.1389 141.816 10.9403L141.504 9.64921L168.84 3.50537L174.494 11.5636L173.826 12.2759C170.487 9.69374 167.326 5.24168 159.268 7.06702L154.148 8.22456C151.432 8.84784 150.23 10.0944 150.764 12.4985L153.569 25.0533L161.494 23.2725C165.144 22.4712 166.792 20.4677 165.679 15.4814L166.925 15.2143L170.175 29.8171L168.929 30.0842C167.905 25.454 165.456 23.8513 161.805 24.6972L153.881 26.478L156.997 40.4575C157.576 42.9506 159.223 43.752 161.983 43.1287L166.881 42.0157C172.935 40.6801 176.052 37.341 178.946 30.6184L179.97 30.841L178.501 40.8136L149.874 47.2246L149.963 47.091Z" fill="white"/>
<path d="M122.119 241.667L202.256 162.335" stroke="white"/>
<path d="M282.394 241.667L202.257 162.335" stroke="white"/>
</svg>
