<svg width="464" height="464" viewBox="0 0 464 464" fill="none" xmlns="http://www.w3.org/2000/svg">
<circle cx="232" cy="232" r="232" fill="white" fill-opacity="0.8"/>
<path d="M232.701 68.2432L232.835 66.9076C236.886 67.3083 237.999 66.1953 238.222 64.0137L241.205 35.1644C241.472 32.6712 240.537 31.7808 236.486 31.3356L236.619 30L250.554 31.4247L250.421 32.7603C245.835 32.2706 244.811 32.9829 244.544 35.476L241.561 64.3254C241.338 66.5069 242.184 67.8425 245.123 68.1096L250.599 68.6884C255.719 69.2227 260.482 66.4179 263.955 61.5206L264.89 62.1439L260.037 71.0035L232.612 68.1542L232.701 68.2432Z" fill="#111111"/>
<path d="M298.548 61.7415C295.743 71.4025 287.596 79.4162 276.51 76.1662C265.914 73.0497 263.421 61.9196 266.226 52.2586C269.075 42.5531 277.178 34.4504 287.774 37.5668C298.859 40.8168 301.352 51.9915 298.548 61.697V61.7415ZM269.654 53.2826C267.027 62.2757 268.541 72.471 276.866 74.8751C285.592 77.4127 292.359 69.6662 294.986 60.673C297.613 51.6798 296.099 41.4401 287.373 38.9024C279.048 36.4538 272.28 44.2894 269.654 53.2381V53.2826Z" fill="#111111"/>
<path d="M308.3 44.7354L320.321 51.0574L319.698 52.2594C316.359 50.4786 314.711 50.7012 313.643 52.7046L303.403 72.1156C300.376 77.9033 302.602 84.1362 308.746 87.3862C313.242 89.7458 319.831 90.5471 323.972 82.7115L334.122 63.4786C335.191 61.4752 334.612 60.1396 331.095 58.2697L331.718 57.0676L342.136 62.5437L341.513 63.7457C337.951 61.8759 336.526 62.1875 335.458 64.1909L325.174 83.7355C321.167 91.3485 314.133 92.2389 306.519 88.1876C300.242 84.893 296.369 78.304 300.732 70.0231L310.704 51.1019C311.773 49.0985 311.372 47.8074 307.722 45.893L308.345 44.6909L308.3 44.7354Z" fill="#111111"/>
<path d="M363.818 80.0843L372.9 87.4747L372.054 88.4987C369.249 86.1836 368.27 86.1836 365.42 87.9199L334.122 106.53L333.41 105.951L345.787 70.8685C346.41 69.1767 346.544 67.663 343.516 65.2144L344.362 64.1904L354.869 72.7829L354.023 73.8069C351.174 71.4918 349.972 70.7795 349.17 71.7144C348.992 71.937 348.814 72.2487 348.681 72.6939L338.263 102.345L364.218 86.8514C364.886 86.4953 365.376 86.0946 365.688 85.6939C366.533 84.6699 365.866 83.5124 362.972 81.1528L363.818 80.1288V80.0843Z" fill="#111111"/>
<path d="M345.118 114.053L346.142 113.207C348.724 116.279 350.327 116.279 352.331 114.632L374.324 96.1559C376.104 94.6422 376.104 93.2621 373.522 90.1901L374.546 89.3442L385.721 102.656C391.063 108.978 390.752 114.855 386.567 118.372C382.738 121.622 377.262 121.933 372.365 116.68L366.176 133.242C365.375 135.379 365.998 136.848 367.779 138.985L366.755 139.831L362.125 134.31L369.961 113.92L365.197 108.221L354.467 117.214C352.509 118.861 352.464 120.731 354.868 123.581L353.844 124.426L345.118 114.053ZM366.221 107.331L372.587 114.899C376.416 119.44 380.913 118.238 384.163 115.478C388.036 112.228 388.214 107.687 384.519 103.279L381.447 99.6285C379.844 97.7141 378.286 97.1799 376.505 98.6936L366.221 107.331Z" fill="#111111"/>
<path d="M364.396 136.314L365.554 135.646C367.335 138.807 369.027 139.519 371.253 138.228L396.14 124.026C398.277 122.824 398.41 121.088 396.585 117.927L397.742 117.259L411.633 141.612L405.578 149.358L404.732 148.913C406.246 144.995 409.54 140.632 405.444 133.42L402.862 128.879C401.482 126.475 399.924 125.673 397.787 126.92L386.612 133.286L390.619 140.32C392.489 143.57 394.893 144.55 399.301 142.012L399.924 143.125L386.924 150.56L386.301 149.447C390.441 147.088 391.242 144.283 389.373 141.033L385.366 133.999L372.944 141.077C370.718 142.368 370.451 144.149 371.876 146.598L374.369 150.961C377.441 156.348 381.537 158.351 388.838 159.153L388.927 160.221L378.955 161.735L364.396 136.269V136.314Z" fill="#111111"/>
<path d="M387.013 181.458L388.304 181.191C389.15 185.153 390.574 185.91 392.711 185.42L421.071 179.276C423.52 178.742 424.098 177.584 423.252 173.622L424.544 173.355L427.526 187.023L426.235 187.29C425.256 182.793 424.276 182.036 421.828 182.571L393.468 188.715C391.331 189.16 390.307 190.362 390.975 193.3L392.133 198.687C393.201 203.718 397.341 207.413 403.085 209.15L402.773 210.263L392.845 208.437L387.013 181.502V181.458Z" fill="#111111"/>
<path d="M413.681 241.916C403.664 242.228 393.469 237.019 393.113 225.488C392.757 214.447 402.551 208.615 412.568 208.259C422.675 207.947 432.87 213.112 433.226 224.153C433.627 235.684 423.743 241.56 413.681 241.916ZM412.702 211.865C403.353 212.177 394.137 216.807 394.449 225.444C394.76 234.526 404.243 238.533 413.592 238.221C422.942 237.91 432.202 233.279 431.89 224.197C431.623 215.56 422.051 211.553 412.702 211.865Z" fill="#111111"/>
<path d="M432.912 245.791L430.686 259.192L429.351 258.969C429.974 255.229 429.262 253.76 427.035 253.404L405.354 249.798C398.943 248.729 393.69 252.825 392.532 259.681C391.686 264.668 393.022 271.168 401.748 272.637L423.207 276.199C425.433 276.555 426.546 275.62 427.214 271.657L428.549 271.88L426.635 283.455L425.299 283.233C425.967 279.27 425.21 278.024 422.984 277.668L401.214 274.062C392.71 272.637 389.683 266.226 391.107 257.767C392.265 250.777 397.296 245.034 406.511 246.548L427.614 250.065C429.84 250.421 430.953 249.62 431.621 245.568L432.957 245.791H432.912Z" fill="#111111"/>
<path d="M416.797 309.633L412.612 320.54L411.366 320.05C412.657 316.667 412.39 315.732 409.852 313.595L382.383 289.732L382.694 288.886L419.869 289.687C421.695 289.732 423.119 289.376 424.544 285.77L425.79 286.259L420.938 298.903L419.691 298.413C421.027 294.985 421.294 293.605 420.181 293.16C419.914 293.071 419.558 292.982 419.112 292.982L387.725 292.359L410.564 312.126C411.099 312.615 411.677 313.016 412.123 313.194C413.369 313.684 414.26 312.705 415.595 309.187L416.842 309.677L416.797 309.633Z" fill="#111111"/>
<path d="M378.686 302.6L379.799 303.312C377.706 306.696 378.151 308.254 380.333 309.634L404.73 324.771C406.734 326.017 408.025 325.572 410.117 322.144L411.23 322.856L402.103 337.593C397.74 344.627 392.086 346.141 387.456 343.291C383.182 340.665 381.179 335.589 384.651 329.312L366.977 328.6C364.706 328.511 363.504 329.535 362.035 331.939L360.922 331.226L364.706 325.082L386.521 326.151L390.439 319.829L378.552 312.483C376.371 311.148 374.59 311.682 372.631 314.843L371.518 314.13L378.641 302.6H378.686ZM391.641 320.541L386.432 328.956C383.316 333.987 385.853 337.904 389.504 340.13C393.823 342.802 398.186 341.555 401.213 336.658L403.706 332.606C405.042 330.47 405.042 328.822 403.038 327.62L391.641 320.541Z" fill="#111111"/>
<path d="M363.55 327.842L364.53 328.733C362.081 331.448 361.948 333.274 363.862 334.966L385.143 354.154C386.968 355.801 388.66 355.356 391.064 352.685L392.044 353.575L373.256 374.411L363.996 371.116L364.129 370.181C368.359 370.359 373.478 372.14 379.044 365.996L382.561 362.123C384.431 360.075 384.698 358.339 382.828 356.692L373.256 348.055L367.824 354.065C365.331 356.825 365.153 359.407 368.937 362.835L368.091 363.77L356.961 353.753L357.807 352.818C361.324 356.024 364.263 355.89 366.756 353.13L372.187 347.12L361.547 337.548C359.633 335.811 357.852 336.168 355.937 338.26L352.554 342C348.413 346.585 347.746 351.127 349.304 358.294L348.324 358.74L343.783 349.746L363.461 327.976L363.55 327.842Z" fill="#111111"/>
<path d="M327.754 363.413L328.422 364.571C324.905 366.619 324.683 368.221 325.796 370.091L340.532 395.067C341.823 397.249 343.07 397.382 346.587 395.334L347.254 396.492L335.189 403.615L334.522 402.458C338.484 400.143 338.885 398.941 337.638 396.759L322.902 371.783C321.789 369.913 320.32 369.334 317.737 370.848L313.018 373.653C308.611 376.28 306.385 381.355 306.518 387.365H305.361L303.98 377.437L327.71 363.413H327.754Z" fill="#111111"/>
<path d="M278.781 407.801C275.309 398.363 277.045 387.099 287.908 383.093C298.281 379.264 306.918 386.743 310.391 396.182C313.863 405.664 312.172 416.973 301.798 420.801C290.98 424.808 282.298 417.284 278.781 407.801ZM307.007 397.384C303.757 388.613 296.5 381.356 288.353 384.339C279.85 387.5 279.004 397.74 282.254 406.51C285.504 415.281 292.805 422.627 301.309 419.466C309.411 416.483 310.257 406.154 307.007 397.384Z" fill="#111111"/>
<path d="M280.876 427.256L267.431 429.304L267.253 427.968C270.992 427.389 272.195 426.232 271.838 424.006L268.544 402.28C267.564 395.824 262.044 392.129 255.143 393.153C250.112 393.91 244.325 397.16 245.66 405.93L248.91 427.434C249.266 429.66 250.513 430.417 254.475 429.838L254.653 431.173L243.034 432.954L242.855 431.619C246.818 430.995 247.797 429.882 247.441 427.656L244.147 405.841C242.855 397.338 248.02 392.44 256.523 391.149C263.558 390.081 270.547 393.064 271.972 402.324L275.177 423.471C275.534 425.697 276.602 426.499 280.698 425.875L280.876 427.211V427.256Z" fill="#111111"/>
<path d="M215.296 431.887L203.587 431.352V430.017C207.282 430.195 208.039 429.616 209.33 426.544L223.399 392.976H224.289L235.241 428.592C235.731 430.328 236.532 431.575 240.45 431.798V433.133L226.827 432.51V431.174C230.566 431.352 231.991 431.174 232.036 429.972C232.036 429.705 232.036 429.349 231.857 428.904L222.553 398.852L210.977 426.767C210.666 427.435 210.488 428.102 210.443 428.548C210.399 429.883 211.601 430.417 215.34 430.596V431.931L215.296 431.887Z" fill="#111111"/>
<path d="M210.131 393.466L209.819 394.757C205.902 393.822 204.61 394.757 203.987 397.25L197.309 425.209C196.775 427.48 197.621 428.593 201.494 429.528L201.182 430.819L184.309 426.767C176.251 424.853 173.045 419.956 174.292 414.658C175.449 409.761 179.634 406.288 186.713 407.579L181.816 390.572C181.193 388.391 179.857 387.589 177.097 386.921L177.408 385.63L184.443 387.322L190.275 408.38L197.487 410.117L200.737 396.493C201.316 394 200.292 392.487 196.641 391.596L196.953 390.305L210.131 393.466ZM197.176 411.408L187.559 409.093C181.771 407.713 178.878 411.363 177.898 415.504C176.696 420.445 179.278 424.185 184.888 425.521L189.518 426.634C191.967 427.213 193.525 426.723 194.059 424.408L197.176 411.363V411.408Z" fill="#111111"/>
<path d="M181.414 387.055L180.88 388.257C177.541 386.787 175.804 387.233 174.736 389.592L163.161 415.77C162.181 417.996 163.116 419.466 166.411 420.935L165.876 422.137L140.232 410.784L140.5 400.989L141.434 400.811C142.547 404.863 142.503 410.339 150.071 413.678L154.88 415.815C157.417 416.928 159.109 416.661 160.133 414.39L165.342 402.637L157.907 399.342C154.479 397.828 151.986 398.496 149.938 403.126L148.78 402.592L154.835 388.924L155.993 389.459C154.078 393.822 155.102 396.537 158.486 398.051L165.921 401.346L171.708 388.257C172.732 385.897 171.887 384.294 169.304 383.137L164.719 381.089C159.065 378.596 154.568 379.397 148.246 383.092L147.534 382.291L154.657 375.167L181.459 387.01L181.414 387.055Z" fill="#111111"/>
<path d="M136.363 364.172L135.473 365.196C132.401 362.524 130.842 362.791 129.418 364.439L110.318 386.254C108.671 388.124 108.894 389.415 111.966 392.086L111.075 393.11L100.568 383.894L101.459 382.87C104.931 385.898 106.178 385.942 107.825 384.028L126.925 362.213C128.349 360.565 128.438 359.007 126.212 357.048L122.072 353.442C118.199 350.059 112.678 349.569 107.024 351.572L106.623 350.504L115.661 346.096L136.363 364.261V364.172Z" fill="#111111"/>
<path d="M78.9289 331.448C86.809 325.215 98.0727 323.345 105.241 332.383C112.097 341.064 107.734 351.571 99.8536 357.804C91.9289 364.082 80.6652 365.996 73.7645 357.359C66.5967 348.321 71.0042 337.725 78.9289 331.448ZM97.6275 354.999C104.973 349.167 109.604 339.996 104.217 333.184C98.5625 326.061 88.5453 328.51 81.2439 334.297C73.9426 340.085 69.2679 349.345 74.8775 356.469C80.2645 363.236 90.3261 360.787 97.6275 354.999Z" fill="#111111"/>
<path d="M61.2537 339.773L55.1098 327.708L56.3119 327.085C58.0482 330.468 59.5174 331.225 61.4763 330.201L81.0208 320.229C86.8085 317.29 88.5893 310.879 85.4284 304.691C83.1133 300.194 78.216 295.742 70.3359 299.749L50.9694 309.633C48.966 310.657 48.6098 312.081 50.4352 315.643L49.2331 316.266L43.8906 305.804L45.0927 305.181C46.918 308.742 48.2982 309.321 50.2571 308.297L69.8907 298.28C77.5482 294.362 83.8256 297.701 87.6989 305.359C90.9044 311.681 90.2811 319.249 81.9557 323.479L62.9454 333.184C60.942 334.208 60.5413 335.499 62.4112 339.15L61.2091 339.773H61.2537Z" fill="#111111"/>
<path d="M36.1467 278.779L33.0303 267.515L34.3214 267.159C35.3008 270.676 36.0577 271.211 39.3967 271.478L75.681 274.327L75.9036 275.217L45.5406 296.721C44.0714 297.745 43.0919 298.902 44.1159 302.642L42.8248 302.998L39.2186 289.909L40.5097 289.553C41.4892 293.115 42.068 294.406 43.27 294.05C43.5371 293.961 43.8933 293.827 44.2495 293.56L69.8933 275.351L39.7529 273.036C38.996 272.947 38.3727 272.991 37.883 273.125C36.5919 273.481 36.4584 274.817 37.4378 278.378L36.1467 278.735V278.779Z" fill="#111111"/>
<path d="M71.0047 261.907L69.6691 261.996C69.3575 257.989 68.0219 257.054 65.4842 257.232L36.8129 259.592C34.4533 259.77 33.6965 260.928 34.0526 264.934L32.717 265.024L31.2924 247.705C30.6245 239.469 34.2307 234.839 39.6622 234.393C44.6485 233.993 49.3232 236.887 50.2581 243.965L64.8609 233.993C66.7308 232.702 67.0869 231.188 66.8643 228.339L68.1999 228.25L68.7787 235.417L50.5698 247.527L51.1931 254.917L65.128 253.76C67.6657 253.537 68.7787 252.068 68.4671 248.328L69.8027 248.239L70.9157 261.774L71.0047 261.907ZM49.902 255.184L49.1006 245.345C48.6109 239.424 44.2479 237.821 39.9739 238.178C34.8985 238.578 32.1382 242.184 32.628 247.972L33.0287 252.691C33.2513 255.184 34.1862 256.52 36.5458 256.297L49.902 255.184Z" fill="#111111"/>
<path d="M68.1987 232.524L66.8631 232.391C67.2192 228.785 66.2398 227.226 63.7021 227.004L35.2089 224.244C32.7603 224.021 31.6473 225.357 31.3356 228.963L30 228.829L32.7158 200.915L42.1096 198.065L42.5548 198.911C39.0377 201.271 33.8288 202.918 33.0274 211.154L32.5377 216.363C32.2706 219.124 33.0719 220.637 35.5206 220.904L48.3425 222.151L49.1439 214.048C49.5 210.309 48.1199 208.172 43.0445 207.637L43.1781 206.346L58.0925 207.771L57.9589 209.062C53.2398 208.617 50.9692 210.442 50.613 214.137L49.8117 222.24L64.0583 223.62C66.5959 223.887 67.887 222.552 68.1542 219.702L68.6439 214.716C69.2227 208.528 67.0411 204.521 61.5651 199.713L62.0994 198.778L71.0925 203.319L68.2432 232.524H68.1987Z" fill="#111111"/>
<path d="M75.724 182.706L74.4774 182.172C76.0801 178.432 75.3233 177.007 73.3199 176.161L46.6075 164.853C44.2924 163.874 43.1794 164.497 41.5767 168.237L40.3301 167.702L45.8061 154.836L47.0527 155.37C45.2719 159.6 45.628 160.802 47.9431 161.781L74.6555 173.089C76.6589 173.935 78.1726 173.535 79.3301 170.774L81.4671 165.699C83.4705 160.98 82.224 155.593 78.5288 150.829L79.4192 150.117L86.4534 157.329L75.6794 182.706H75.724Z" fill="#111111"/>
<path d="M88.8135 117.883C97.1834 123.404 102.481 133.51 96.1594 143.171C90.1046 152.431 78.7073 151.541 70.3375 146.02C61.8786 140.455 56.5361 130.349 62.5909 121.133C68.9128 111.472 80.3546 112.362 88.8135 117.927V117.883ZM72.2964 142.993C80.0875 148.112 90.2827 149.671 95.0464 142.414C100.033 134.845 94.6012 126.075 86.8101 120.955C79.019 115.835 68.7792 114.277 63.7929 121.845C59.0292 129.058 64.5053 137.873 72.3409 142.993H72.2964Z" fill="#111111"/>
<path d="M75.5029 103.547L85.0749 93.9302L86.0098 94.8651C83.3386 97.5364 83.0714 99.1836 84.6742 100.742L100.256 116.191C104.887 120.776 111.52 120.464 116.417 115.523C119.979 111.917 122.695 105.862 116.417 99.6288L100.969 84.3137C99.366 82.7555 97.8968 82.8446 95.092 85.6939L94.1571 84.7589L102.438 76.4336L103.373 77.3685C100.568 80.2178 100.434 81.687 102.037 83.2452L117.708 98.7829C123.808 104.838 122.606 111.827 116.551 117.927C111.565 122.958 104.13 124.738 97.4961 118.149L82.3146 103.101C80.7118 101.543 79.3762 101.543 76.4824 104.437L75.5475 103.502L75.5029 103.547Z" fill="#111111"/>
<path d="M125.499 60.7188L135.249 54.2188L136.006 55.3318C132.978 57.3352 132.667 58.2701 133.512 61.5201L142.149 96.8695L141.393 97.3592L111.475 75.277C110.05 74.164 108.625 73.6297 105.42 75.8112L104.663 74.6982L115.927 67.1742L116.684 68.2873C113.612 70.3352 112.588 71.2701 113.256 72.2941C113.389 72.5167 113.656 72.7838 114.012 73.051L139.3 91.7051L132.043 62.366C131.865 61.6537 131.643 61.0304 131.375 60.6297C130.619 59.5167 129.327 59.7838 126.256 61.8763L125.499 60.7633V60.7188Z" fill="#111111"/>
<path d="M152.389 88.5432L151.855 87.2966C155.55 85.7384 156.039 84.1802 155.06 81.8206L143.796 55.3753C142.861 53.1938 141.57 52.8377 137.875 54.3959L137.341 53.1493L153.324 46.3377C160.937 43.0877 166.457 45.0911 168.594 50.1219C170.553 54.7521 169.262 60.05 162.851 63.211L176.875 73.985C178.7 75.3651 180.259 75.2315 182.841 74.1185L183.375 75.3651L176.742 78.1699L159.512 64.7247L152.656 67.6185L158.132 80.485C159.156 82.8446 160.892 83.4233 164.32 81.9541L164.855 83.2007L152.344 88.4987L152.389 88.5432ZM152.166 66.4165L161.248 62.5432C166.724 60.2281 166.858 55.5534 165.211 51.6356C163.207 46.9609 158.933 45.4918 153.635 47.7178L149.272 49.5877C146.957 50.5671 146.022 51.9027 146.957 54.0842L152.211 66.4165H152.166Z" fill="#111111"/>
<path d="M179.325 76.6575L179.013 75.3664C182.575 74.565 183.733 73.1403 183.154 70.6472L176.876 42.7327C176.342 40.3286 174.74 39.7053 171.178 40.5067L170.866 39.2156L198.202 33.0718L203.856 41.13L203.188 41.8423C199.849 39.2601 196.688 34.8081 188.63 36.6334L183.51 37.791C180.794 38.4143 179.592 39.6608 180.126 42.0649L182.931 54.6198L190.856 52.8389C194.507 52.0376 196.154 50.0341 195.041 45.0478L196.287 44.7807L199.537 59.3835L198.291 59.6506C197.267 55.0204 194.818 53.4177 191.168 54.2636L183.243 56.0444L186.359 70.0239C186.938 72.517 188.585 73.3184 191.346 72.6951L196.243 71.5821C202.298 70.2465 205.414 66.9074 208.308 60.1848L209.332 60.4074L207.863 70.3801L179.236 76.791L179.325 76.6575Z" fill="#111111"/>
</svg>
